<?xml version="1.0" standalone="no"?>
<!DOCTYPE svg PUBLIC "-//W3C//DTD SVG 20010904//EN"
 "http://www.w3.org/TR/2001/REC-SVG-20010904/DTD/svg10.dtd">
<svg version="1.0" xmlns="http://www.w3.org/2000/svg"
 width="180.000000pt" height="180.000000pt" viewBox="0 0 180.000000 180.000000"
 preserveAspectRatio="xMidYMid meet">
<metadata>
Created by potrace 1.11, written by Peter Selinger 2001-2013
</metadata>
<g transform="translate(0.000000,180.000000) scale(0.100000,-0.100000)"
fill="#000000" stroke="none">
<path d="M411 1753 c-48 -57 -96 -149 -111 -217 -24 -108 -22 -258 6 -384 5
-23 4 -23 -18 -8 -74 52 -143 -21 -131 -140 13 -135 110 -264 199 -264 30 0
33 -3 44 -50 10 -44 20 -56 69 -94 31 -23 75 -55 99 -71 23 -15 42 -32 42 -36
0 -5 -47 -9 -105 -9 -120 0 -143 -8 -198 -69 -49 -54 -67 -120 -74 -278 l-6
-133 40 0 41 0 4 142 c3 128 6 148 28 193 34 69 69 85 182 85 87 0 88 0 103
-30 l16 -30 -103 0 -103 0 -24 -35 c-25 -38 -40 -126 -41 -252 l0 -73 310 0
c264 1 310 3 310 15 0 8 7 15 15 15 8 0 15 -7 15 -15 0 -13 30 -15 214 -15
l213 0 7 46 c11 80 7 104 -18 127 -14 13 -26 39 -31 67 -4 25 -16 62 -28 82
-21 39 -36 44 -170 51 -47 2 -47 2 -32 25 15 20 24 22 101 22 106 0 134 -13
165 -77 20 -41 24 -70 30 -193 4 -80 7 -146 8 -147 0 -2 17 -3 36 -3 l35 0 0
124 c0 266 -67 355 -267 356 -51 0 -93 4 -93 9 0 5 35 34 78 64 78 55 86 65
112 150 10 31 16 37 40 37 40 0 109 56 146 118 59 97 64 250 11 287 -24 17
-73 20 -82 5 -3 -5 -11 -10 -17 -10 -6 0 -1 11 11 24 19 20 20 25 8 33 -12 7
-13 19 -5 73 7 45 7 95 -1 163 -7 65 -8 104 -1 117 7 13 6 21 -5 30 -9 7 -13
21 -10 31 4 12 -1 22 -15 29 -11 6 -20 17 -20 24 0 8 -20 41 -45 75 l-45 61
-449 0 -449 0 -41 -47z m859 -192 c40 -31 85 -116 94 -177 4 -32 1 -46 -13
-63 -13 -15 -21 -18 -26 -10 -6 8 -10 7 -16 -2 -7 -11 -9 -10 -9 3 0 27 -98
16 -192 -21 -92 -37 -101 -38 -122 -6 -28 42 -42 31 -50 -37 -4 -39 -2 -64 4
-66 5 -2 10 -8 10 -13 0 -5 -26 -8 -57 -8 -32 1 -65 -1 -73 -3 -16 -3 -17 0
-19 82 -1 59 -21 88 -21 30 0 -22 -5 -30 -17 -30 -25 0 -111 24 -158 44 -21 9
-63 19 -92 21 -45 4 -53 2 -54 -13 0 -9 -3 -12 -5 -5 -3 7 -11 10 -18 7 -7 -3
-21 7 -31 22 -29 45 -1 150 60 222 39 46 67 55 119 38 23 -8 80 -19 126 -26
47 -6 92 -14 100 -16 8 -3 17 -5 19 -4 2 1 7 -4 12 -12 7 -11 14 -10 41 3 18
9 71 21 118 27 47 6 110 19 140 30 63 23 81 21 130 -17z m-846 -306 c-7 -18
12 -20 19 -2 3 6 4 -3 3 -20 -3 -29 0 -33 20 -33 13 0 24 -4 24 -8 0 -9 -70
-42 -88 -42 -15 0 -15 23 -1 37 8 8 5 14 -10 22 -21 12 -21 12 6 36 33 29 34
29 27 10z m956 -23 c0 -5 -5 -13 -11 -19 -8 -8 -8 -13 0 -17 20 -13 11 -34
-15 -39 -17 -3 -40 3 -62 16 -32 19 -33 21 -16 34 10 7 21 13 26 13 4 0 8 6 8
14 0 8 8 16 18 19 19 4 52 -9 52 -21z m-752 -69 c-10 -2 -28 -2 -40 0 -13 2
-5 4 17 4 22 1 32 -1 23 -4z m515 0 c-7 -2 -19 -2 -25 0 -7 3 -2 5 12 5 14 0
19 -2 13 -5z m-642 -31 c-16 -31 -13 -35 11 -18 34 24 44 20 40 -18 -8 -68 79
-103 128 -52 15 17 21 33 18 50 -6 30 -5 31 26 11 23 -15 25 -14 45 17 l21 33
0 -40 c0 -62 -19 -88 -70 -102 -66 -17 -168 -15 -225 5 l-50 17 0 55 c0 53 1
55 30 61 37 7 39 5 26 -19z m539 24 c0 -3 -4 -16 -10 -30 -10 -29 0 -35 20
-11 21 26 37 18 32 -16 -6 -39 29 -79 70 -79 42 0 81 42 76 81 -4 29 13 41 27
19 10 -16 28 -12 22 5 -9 21 12 30 30 12 11 -11 13 -24 6 -58 -8 -41 -11 -45
-58 -62 -38 -13 -70 -16 -135 -13 -108 6 -134 17 -149 66 -16 53 -14 66 12 78
22 11 57 16 57 8z m-100 -41 c0 -43 30 -102 58 -115 33 -16 252 -27 261 -13 3
6 19 16 36 24 22 11 31 24 37 54 13 62 48 76 48 19 0 -31 3 -35 20 -29 11 3
20 4 20 1 0 -19 -54 -273 -72 -340 -20 -76 -22 -79 -82 -123 -33 -25 -103 -70
-155 -101 l-95 -55 -102 -5 c-62 -3 -115 0 -136 7 -39 13 -229 134 -295 187
-41 33 -42 37 -73 167 -49 211 -60 277 -45 277 7 0 15 9 18 20 9 33 24 23 36
-25 10 -39 16 -46 59 -65 40 -18 62 -21 154 -18 127 4 155 18 175 89 7 24 15
50 18 57 3 7 25 12 60 12 52 0 55 -1 55 -25z m260 -1 c0 -9 -7 -14 -17 -12
-25 5 -28 28 -4 28 12 0 21 -6 21 -16z m-911 -18 c21 -22 47 -93 38 -102 -3
-3 -10 10 -16 28 -26 74 -90 104 -109 51 -6 -16 -11 -23 -11 -16 -1 6 3 23 9
37 13 34 58 35 89 2z m391 15 c0 -19 -22 -23 -38 -7 -15 15 -14 16 11 16 15 0
27 -4 27 -9z m890 -17 c6 -14 10 -31 9 -37 0 -7 -5 0 -11 16 -18 49 -78 26
-107 -43 -10 -22 -10 -21 -5 10 13 73 93 111 114 54z m-1314 -28 c18 -14 18
-15 2 -21 -27 -11 -22 -28 6 -21 32 8 45 -31 17 -51 -10 -7 -22 -24 -25 -38
-4 -14 -13 -25 -22 -25 -18 0 -8 -22 30 -62 19 -22 34 -28 64 -28 32 0 41 -4
45 -21 14 -51 -59 -25 -117 43 -37 43 -67 121 -65 167 2 24 2 24 6 4 8 -44 28
-25 25 22 -4 48 2 54 34 31z m1294 -31 c0 -47 15 -62 23 -22 4 20 4 20 6 -4 4
-75 -63 -190 -131 -225 -33 -17 -53 -8 -42 19 4 12 18 17 44 17 33 0 42 5 70
43 24 33 28 43 15 45 -8 2 -18 14 -21 27 -3 13 -14 31 -24 40 -26 23 -15 57
16 49 28 -7 33 10 7 21 -17 6 -17 7 1 21 31 22 36 17 36 -31z m-1196 -147 c8
-44 -6 -50 -29 -14 -13 20 -14 29 -5 46 15 27 26 17 34 -32z m1106 11 c0 -4
-9 -17 -20 -30 -22 -27 -25 -17 -13 41 6 31 7 32 20 15 7 -11 13 -22 13 -26z
m-795 -476 c-7 -27 -7 -28 -17 -6 -13 27 -2 61 14 45 6 -6 8 -22 3 -39z m482
-15 c-13 -20 -22 -14 -31 24 -8 33 14 44 30 15 9 -15 9 -26 1 -39z m-126 -91
c-6 -8 -49 -13 -118 -15 -80 -2 -111 -7 -119 -18 -9 -12 -12 -9 -17 13 -3 16
-3 40 0 54 5 26 5 26 46 12 54 -19 135 -9 179 21 l33 22 3 -39 c2 -21 -1 -44
-7 -50z m-11 -62 c0 -8 -4 -15 -10 -15 -5 0 -10 7 -10 15 0 8 5 15 10 15 6 0
10 -7 10 -15z m-220 -25 c0 -11 -4 -20 -10 -20 -5 0 -10 9 -10 20 0 11 5 20
10 20 6 0 10 -9 10 -20z m220 -35 c0 -8 -4 -15 -10 -15 -5 0 -10 7 -10 15 0 8
5 15 10 15 6 0 10 -7 10 -15z m-220 -25 c0 -11 -4 -20 -10 -20 -5 0 -10 9 -10
20 0 11 5 20 10 20 6 0 10 -9 10 -20z m220 -35 c0 -8 -4 -15 -10 -15 -5 0 -10
7 -10 15 0 8 5 15 10 15 6 0 10 -7 10 -15z m-220 -25 c0 -11 -4 -20 -10 -20
-5 0 -10 9 -10 20 0 11 5 20 10 20 6 0 10 -9 10 -20z m220 -41 c0 -11 -4 -17
-10 -14 -5 3 -10 13 -10 21 0 8 5 14 10 14 6 0 10 -9 10 -21z m-220 -19 c0
-11 -4 -20 -10 -20 -5 0 -10 9 -10 20 0 11 5 20 10 20 6 0 10 -9 10 -20z"/>
<path d="M826 955 c-12 -13 -28 -41 -35 -62 -7 -21 -15 -43 -17 -50 -3 -6 15
-25 41 -43 l45 -31 40 22 c47 26 40 50 -9 30 -22 -10 -34 -10 -50 -1 -25 13
-25 11 -4 55 9 19 24 35 32 35 33 0 43 15 30 43 -15 34 -43 35 -73 2z"/>
<path d="M702 679 c7 -20 48 -26 169 -28 132 -1 199 7 199 25 0 11 -11 12 -47
6 -65 -10 -228 -9 -282 2 -35 6 -42 5 -39 -5z"/>
<path d="M800 593 c0 -5 7 -17 15 -27 18 -24 80 -24 106 0 31 28 22 34 -51 34
-38 0 -70 -3 -70 -7z"/>
</g>
</svg>
